<svg xmlns="http://www.w3.org/2000/svg" id="canvas" viewBox="225.194 262.904 997.314 216.748"><path d="M 242.66,266.32 C 242.20 266.87, 242.11 267.44, 241.72 269.09 C 241.34 270.73, 241.03 271.82, 240.74 274.54 C 240.46 277.26, 240.60 279.02, 240.30 282.69 C 240.00 286.37, 239.66 288.46, 239.26 292.93 C 238.85 297.39, 238.74 299.95, 238.28 305.00 C 237.81 310.05, 237.46 312.73, 236.93 318.17 C 236.39 323.62, 236.19 326.39, 235.59 332.22 C 234.99 338.04, 234.61 341.35, 233.93 347.28 C 233.24 353.22, 232.87 356.22, 232.17 361.90 C 231.48 367.57, 231.03 370.49, 230.46 375.67 C 229.89 380.85, 229.77 383.53, 229.33 387.80 C 228.88 392.07, 228.41 394.07, 228.25 397.00 C 228.08 399.93, 228.34 400.92, 228.49 402.46 C 228.64 404.01, 228.75 404.27, 228.99 404.73 C 229.24 405.19, 229.43 405.19, 229.71 404.76 C 230.00 404.32, 230.11 404.07, 230.41 402.56 C 230.70 401.05, 230.97 400.12, 231.21 397.21 C 231.45 394.30, 231.38 392.25, 231.62 387.98 C 231.86 383.71, 231.93 381.04, 232.40 375.86 C 232.87 370.69, 233.32 367.79, 233.98 362.11 C 234.64 356.44, 235.02 353.43, 235.71 347.49 C 236.40 341.55, 236.79 338.23, 237.42 332.41 C 238.06 326.59, 238.27 323.81, 238.88 318.38 C 239.49 312.94, 239.88 310.26, 240.46 305.23 C 241.05 300.20, 241.20 297.65, 241.82 293.22 C 242.43 288.79, 242.92 286.75, 243.54 283.10 C 244.16 279.45, 244.67 277.73, 244.93 274.96 C 245.20 272.20, 245.05 271.00, 244.87 269.28 C 244.69 267.56, 244.48 266.94, 244.04 266.35 C 243.60 265.75, 243.13 265.77, 242.66 266.32" style="stroke: black; fill: black;"/><path d="M 267.04,340.57 C 266.47 340.79, 266.01 341.07, 265.36 342.25 C 264.70 343.43, 264.25 344.23, 263.78 346.47 C 263.30 348.71, 263.31 350.27, 262.97 353.46 C 262.64 356.65, 262.51 358.66, 262.08 362.43 C 261.66 366.19, 261.28 368.49, 260.83 372.30 C 260.38 376.11, 260.03 378.24, 259.82 381.46 C 259.61 384.68, 259.42 386.23, 259.78 388.39 C 260.15 390.55, 260.54 391.38, 261.64 392.25 C 262.75 393.12, 263.72 393.39, 265.30 392.75 C 266.88 392.11, 267.92 391.23, 269.54 389.05 C 271.16 386.87, 271.77 385.09, 273.41 381.85 C 275.05 378.61, 275.88 376.55, 277.72 372.86 C 279.56 369.18, 280.66 367.01, 282.61 363.42 C 284.55 359.84, 285.62 357.97, 287.45 354.94 C 289.28 351.92, 290.27 350.49, 291.75 348.31 C 293.23 346.13, 293.91 345.18, 294.86 344.05 C 295.81 342.92, 296.07 342.55, 296.51 342.65 C 296.95 342.75, 296.91 343.08, 297.07 344.55 C 297.22 346.03, 297.11 347.31, 297.29 350.02 C 297.48 352.72, 297.85 354.53, 298.00 358.06 C 298.15 361.59, 297.99 363.86, 298.06 367.67 C 298.14 371.48, 298.12 373.61, 298.37 377.10 C 298.63 380.58, 298.63 382.42, 299.33 385.08 C 300.03 387.75, 300.68 388.87, 301.88 390.44 C 303.08 392.00, 304.11 392.40, 305.32 392.90 C 306.53 393.41, 307.36 393.16, 307.93 392.96 C 308.50 392.76, 308.47 392.29, 308.16 391.89 C 307.85 391.50, 307.17 391.60, 306.38 390.99 C 305.59 390.38, 304.97 390.20, 304.20 388.86 C 303.44 387.52, 303.09 386.70, 302.55 384.30 C 302.02 381.89, 301.79 380.18, 301.52 376.85 C 301.25 373.52, 301.18 371.41, 301.18 367.64 C 301.19 363.87, 301.47 361.63, 301.55 358.03 C 301.63 354.42, 301.92 352.51, 301.59 349.62 C 301.27 346.73, 300.86 345.29, 299.91 343.57 C 298.97 341.86, 298.22 341.34, 296.87 341.04 C 295.52 340.74, 294.72 341.02, 293.15 342.09 C 291.58 343.16, 290.66 344.11, 289.02 346.39 C 287.38 348.67, 286.72 350.35, 284.95 353.49 C 283.19 356.63, 282.17 358.51, 280.20 362.11 C 278.23 365.71, 277.10 367.89, 275.12 371.50 C 273.14 375.11, 272.10 377.10, 270.30 380.16 C 268.51 383.21, 267.42 384.66, 266.15 386.78 C 264.89 388.90, 264.64 389.89, 263.97 390.76 C 263.30 391.62, 263.08 391.61, 262.82 391.09 C 262.56 390.57, 262.62 390.05, 262.68 388.17 C 262.74 386.29, 262.90 384.80, 263.13 381.70 C 263.37 378.59, 263.43 376.42, 263.86 372.65 C 264.29 368.89, 264.69 366.60, 265.30 362.87 C 265.90 359.14, 266.37 357.13, 266.90 353.99 C 267.42 350.85, 267.66 349.34, 267.92 347.16 C 268.18 344.99, 268.14 344.31, 268.20 343.11 C 268.27 341.90, 268.48 341.64, 268.25 341.14 C 268.01 340.63, 267.62 340.34, 267.04 340.57" style="stroke: black; fill: black;"/><path d="M 364.22,338.57 C 364.40 337.98, 364.41 337.31, 363.88 336.38 C 363.34 335.45, 362.83 334.80, 361.56 333.93 C 360.29 333.05, 359.38 332.47, 357.51 332.01 C 355.65 331.55, 354.46 331.55, 352.23 331.62 C 350.01 331.69, 348.64 331.80, 346.38 332.38 C 344.12 332.96, 342.85 333.47, 340.93 334.51 C 339.01 335.56, 338.07 336.15, 336.77 337.62 C 335.46 339.09, 334.79 340.04, 334.41 341.86 C 334.03 343.69, 334.15 344.76, 334.87 346.75 C 335.58 348.74, 336.35 349.77, 337.99 351.82 C 339.62 353.86, 340.79 354.88, 343.04 357.00 C 345.29 359.11, 346.84 360.17, 349.23 362.38 C 351.62 364.59, 352.99 365.73, 354.99 368.03 C 356.99 370.34, 357.90 371.63, 359.23 373.91 C 360.57 376.20, 361.17 377.33, 361.68 379.44 C 362.19 381.56, 362.21 382.54, 361.78 384.51 C 361.35 386.47, 360.85 387.48, 359.53 389.28 C 358.21 391.09, 357.20 391.99, 355.17 393.53 C 353.14 395.07, 351.75 395.94, 349.38 396.98 C 347.02 398.03, 345.64 398.39, 343.35 398.74 C 341.07 399.09, 339.74 399.09, 337.95 398.71 C 336.16 398.33, 335.46 397.78, 334.40 396.84 C 333.34 395.89, 333.26 395.01, 332.64 393.97 C 332.01 392.93, 331.80 392.03, 331.27 391.63 C 330.74 391.23, 330.23 391.28, 330.00 391.97 C 329.76 392.66, 329.64 393.64, 330.09 395.08 C 330.54 396.51, 330.83 397.76, 332.24 399.13 C 333.65 400.51, 334.83 401.29, 337.14 401.94 C 339.46 402.59, 341.05 402.65, 343.80 402.37 C 346.56 402.09, 348.17 401.70, 350.92 400.54 C 353.67 399.38, 355.25 398.43, 357.56 396.57 C 359.86 394.71, 360.95 393.55, 362.43 391.26 C 363.90 388.98, 364.43 387.65, 364.91 385.14 C 365.40 382.64, 365.36 381.35, 364.83 378.75 C 364.30 376.16, 363.73 374.76, 362.28 372.17 C 360.82 369.58, 359.68 368.28, 357.55 365.82 C 355.43 363.35, 354.00 362.17, 351.64 359.85 C 349.28 357.53, 347.86 356.33, 345.74 354.21 C 343.61 352.09, 342.58 351.03, 341.01 349.27 C 339.45 347.51, 338.67 346.78, 337.91 345.42 C 337.16 344.06, 337.02 343.56, 337.26 342.46 C 337.49 341.36, 338.01 340.83, 339.08 339.92 C 340.14 339.00, 340.93 338.58, 342.58 337.86 C 344.23 337.15, 345.37 336.78, 347.33 336.36 C 349.29 335.94, 350.53 335.84, 352.38 335.76 C 354.22 335.69, 355.15 335.68, 356.55 336.01 C 357.96 336.33, 358.44 336.87, 359.43 337.39 C 360.42 337.91, 360.80 338.21, 361.50 338.60 C 362.21 338.99, 362.40 339.35, 362.94 339.34 C 363.49 339.34, 364.03 339.16, 364.22 338.57" style="stroke: black; fill: black;"/><path d="M 386.38,335.30 C 385.77 335.72, 385.39 336.39, 384.76 337.80 C 384.14 339.21, 383.84 340.09, 383.25 342.35 C 382.66 344.60, 382.36 346.12, 381.83 349.08 C 381.30 352.03, 381.04 353.77, 380.60 357.13 C 380.16 360.49, 379.97 362.47, 379.64 365.87 C 379.31 369.28, 378.92 371.09, 378.95 374.17 C 378.99 377.25, 379.11 378.83, 379.83 381.27 C 380.55 383.70, 381.12 384.85, 382.56 386.36 C 384.01 387.87, 384.98 388.42, 387.05 388.81 C 389.12 389.19, 390.52 389.10, 392.91 388.27 C 395.30 387.44, 396.55 386.63, 399.01 384.64 C 401.46 382.64, 402.67 381.13, 405.19 378.29 C 407.70 375.45, 409.08 373.70, 411.58 370.43 C 414.09 367.16, 415.37 365.27, 417.72 361.96 C 420.07 358.65, 421.32 356.88, 423.35 353.88 C 425.38 350.88, 426.59 349.31, 427.87 346.95 C 429.15 344.59, 429.41 343.24, 429.73 342.08 C 430.05 340.91, 429.85 340.73, 429.47 341.12 C 429.09 341.51, 428.55 342.11, 427.85 344.02 C 427.16 345.92, 426.68 347.45, 426.00 350.66 C 425.31 353.86, 425.02 356.11, 424.41 360.04 C 423.80 363.97, 423.35 366.33, 422.95 370.33 C 422.54 374.33, 422.26 376.48, 422.38 380.04 C 422.50 383.60, 422.62 385.47, 423.54 388.13 C 424.46 390.79, 426.04 392.41, 426.97 393.33 C 427.91 394.24, 428.33 393.91, 428.21 392.71 C 428.09 391.51, 426.94 389.88, 426.37 387.32 C 425.79 384.77, 425.45 383.28, 425.34 379.94 C 425.23 376.60, 425.38 374.50, 425.83 370.64 C 426.27 366.78, 426.75 364.44, 427.58 360.63 C 428.41 356.81, 429.22 354.74, 429.97 351.56 C 430.73 348.38, 431.25 346.85, 431.36 344.71 C 431.47 342.57, 431.18 341.63, 430.52 340.86 C 429.86 340.10, 429.21 340.02, 428.07 340.88 C 426.94 341.75, 426.27 342.90, 424.84 345.18 C 423.40 347.46, 422.76 349.26, 420.90 352.30 C 419.03 355.34, 417.81 357.11, 415.50 360.39 C 413.20 363.67, 411.90 365.54, 409.37 368.70 C 406.85 371.85, 405.42 373.55, 402.89 376.16 C 400.35 378.77, 398.95 379.98, 396.70 381.74 C 394.44 383.51, 393.47 384.15, 391.62 384.99 C 389.77 385.83, 388.84 386.03, 387.44 385.94 C 386.03 385.85, 385.49 385.64, 384.59 384.54 C 383.70 383.44, 383.40 382.54, 382.96 380.46 C 382.53 378.38, 382.43 376.99, 382.42 374.14 C 382.42 371.29, 382.61 369.49, 382.93 366.19 C 383.26 362.90, 383.47 360.92, 384.05 357.66 C 384.64 354.40, 385.19 352.77, 385.84 349.89 C 386.50 347.01, 386.93 345.51, 387.33 343.24 C 387.73 340.97, 387.76 340.07, 387.86 338.56 C 387.95 337.06, 388.09 336.37, 387.80 335.71 C 387.50 335.06, 386.99 334.88, 386.38 335.30" style="stroke: black; fill: black;"/><path d="M 457.71,341.09 C 457.23 341.32, 456.91 341.45, 456.43 342.53 C 455.96 343.61, 455.71 344.39, 455.33 346.51 C 454.96 348.63, 454.99 350.06, 454.56 353.15 C 454.13 356.24, 453.88 358.26, 453.20 361.96 C 452.51 365.67, 452.02 368.00, 451.14 371.67 C 450.26 375.35, 449.45 377.35, 448.81 380.33 C 448.17 383.32, 447.90 384.95, 447.95 386.57 C 448.00 388.20, 448.37 388.75, 449.08 388.46 C 449.78 388.17, 450.60 387.39, 451.46 385.13 C 452.32 382.87, 452.54 380.80, 453.39 377.14 C 454.24 373.48, 454.73 371.02, 455.70 366.84 C 456.67 362.65, 457.23 360.20, 458.22 356.21 C 459.20 352.23, 459.73 350.17, 460.62 346.93 C 461.51 343.68, 462.05 342.18, 462.67 339.99 C 463.29 337.80, 463.38 336.94, 463.73 335.98 C 464.08 335.02, 464.04 334.91, 464.44 335.19 C 464.83 335.47, 464.85 336.08, 465.71 337.37 C 466.58 338.67, 467.06 339.89, 468.76 341.67 C 470.46 343.44, 471.56 344.64, 474.21 346.25 C 476.85 347.87, 478.49 348.65, 481.97 349.75 C 485.46 350.85, 487.46 351.37, 491.63 351.76 C 495.81 352.15, 498.30 352.11, 502.85 351.71 C 507.40 351.30, 509.82 350.82, 514.39 349.73 C 518.95 348.65, 521.48 347.80, 525.68 346.28 C 529.87 344.76, 531.95 343.94, 535.38 342.12 C 538.80 340.30, 540.53 339.20, 542.79 337.17 C 545.04 335.15, 545.88 333.93, 546.63 332.01 C 547.38 330.10, 547.39 328.99, 546.54 327.60 C 545.69 326.21, 544.58 325.45, 542.40 325.06 C 540.22 324.67, 538.57 324.72, 535.64 325.65 C 532.72 326.58, 530.98 327.57, 527.79 329.71 C 524.61 331.84, 522.80 333.30, 519.72 336.35 C 516.64 339.40, 514.95 341.28, 512.39 344.96 C 509.83 348.64, 508.56 350.76, 506.92 354.76 C 505.29 358.75, 504.49 360.99, 504.19 364.92 C 503.90 368.85, 504.03 371.01, 505.44 374.41 C 506.85 377.80, 508.12 379.49, 511.23 381.90 C 514.35 384.31, 516.56 385.22, 521.02 386.44 C 525.48 387.65, 528.20 388.10, 533.53 387.98 C 538.86 387.87, 542.42 387.03, 547.67 385.87 C 552.92 384.72, 555.70 383.69, 559.76 382.22 C 563.82 380.75, 566.43 379.51, 567.97 378.51 C 569.51 377.52, 569.23 376.90, 567.45 377.24 C 565.67 377.58, 563.12 378.90, 559.07 380.20 C 555.02 381.50, 552.32 382.62, 547.20 383.73 C 542.08 384.85, 538.59 385.70, 533.48 385.79 C 528.37 385.88, 525.79 385.36, 521.65 384.18 C 517.51 383.01, 515.54 382.06, 512.78 379.91 C 510.02 377.76, 509.04 376.38, 507.84 373.42 C 506.63 370.46, 506.46 368.66, 506.74 365.12 C 507.02 361.57, 507.68 359.44, 509.22 355.70 C 510.76 351.96, 511.97 349.89, 514.44 346.41 C 516.92 342.93, 518.60 341.11, 521.61 338.32 C 524.62 335.52, 526.45 334.21, 529.51 332.44 C 532.56 330.67, 534.34 330.32, 536.89 329.47 C 539.43 328.62, 540.60 328.36, 542.22 328.20 C 543.83 328.04, 544.52 328.11, 544.96 328.65 C 545.40 329.18, 545.25 329.64, 544.39 330.87 C 543.53 332.09, 542.73 332.99, 540.67 334.78 C 538.61 336.57, 537.25 337.96, 534.09 339.81 C 530.92 341.66, 528.89 342.50, 524.84 344.03 C 520.80 345.56, 518.28 346.40, 513.84 347.44 C 509.40 348.48, 507.03 348.93, 502.65 349.25 C 498.26 349.58, 495.85 349.55, 491.93 349.05 C 488.00 348.56, 486.12 348.00, 483.01 346.78 C 479.91 345.57, 478.61 344.62, 476.38 342.99 C 474.14 341.36, 473.47 340.24, 471.83 338.63 C 470.20 337.03, 469.60 335.98, 468.19 334.95 C 466.77 333.92, 466.00 333.52, 464.75 333.49 C 463.51 333.46, 462.96 333.70, 461.95 334.81 C 460.94 335.91, 460.56 336.75, 459.72 339.02 C 458.88 341.29, 458.58 342.86, 457.75 346.17 C 456.92 349.48, 456.55 351.57, 455.57 355.56 C 454.58 359.55, 453.98 361.97, 452.84 366.11 C 451.70 370.25, 450.84 372.63, 449.86 376.26 C 448.89 379.89, 448.26 381.87, 447.97 384.27 C 447.68 386.67, 447.95 387.69, 448.40 388.26 C 448.85 388.83, 449.44 388.53, 450.21 387.11 C 450.99 385.69, 451.49 384.12, 452.28 381.17 C 453.07 378.22, 453.34 376.08, 454.17 372.37 C 455.00 368.66, 455.53 366.35, 456.41 362.64 C 457.29 358.93, 457.93 356.95, 458.57 353.83 C 459.20 350.71, 459.45 349.20, 459.60 347.03 C 459.75 344.85, 459.46 344.08, 459.31 342.96 C 459.17 341.83, 459.18 341.78, 458.86 341.41 C 458.53 341.03, 458.20 340.87, 457.71 341.09" style="stroke: black; fill: black;"/><path d="M 643.22,292.15 C 642.80 292.32, 642.70 292.33, 642.25 293.14 C 641.80 293.95, 641.43 294.42, 640.97 296.21 C 640.51 298.00, 640.28 299.25, 639.96 302.08 C 639.64 304.90, 639.81 306.59, 639.38 310.33 C 638.94 314.08, 638.51 316.21, 637.78 320.79 C 637.05 325.37, 636.53 328.06, 635.73 333.24 C 634.93 338.43, 634.54 341.28, 633.77 346.72 C 633.00 352.17, 632.57 355.22, 631.87 360.47 C 631.17 365.73, 630.78 368.42, 630.26 373.01 C 629.75 377.60, 629.38 379.96, 629.29 383.42 C 629.20 386.87, 629.24 388.45, 629.81 390.28 C 630.38 392.12, 631.02 392.72, 632.14 392.57 C 633.26 392.42, 634.29 391.80, 635.40 389.54 C 636.51 387.27, 636.79 385.27, 637.68 381.24 C 638.56 377.21, 638.85 374.63, 639.83 369.37 C 640.80 364.12, 641.38 360.99, 642.56 354.96 C 643.74 348.92, 644.48 345.56, 645.71 339.19 C 646.94 332.82, 647.51 329.36, 648.72 323.10 C 649.94 316.83, 650.58 313.54, 651.78 307.85 C 652.98 302.16, 653.73 299.41, 654.73 294.65 C 655.74 289.90, 656.06 287.64, 656.81 284.07 C 657.55 280.51, 658.15 278.86, 658.46 276.84 C 658.77 274.82, 658.53 274.00, 658.35 273.96 C 658.17 273.91, 657.64 274.45, 657.55 276.61 C 657.46 278.76, 657.63 280.76, 657.89 284.73 C 658.15 288.70, 658.41 291.39, 658.85 296.47 C 659.28 301.56, 659.48 304.91, 660.07 310.15 C 660.67 315.40, 660.85 318.12, 661.81 322.68 C 662.78 327.23, 663.40 329.49, 664.90 332.92 C 666.39 336.35, 667.16 337.85, 669.28 339.83 C 671.40 341.81, 672.81 342.40, 675.47 342.80 C 678.13 343.20, 679.75 343.10, 682.58 341.83 C 685.41 340.57, 686.84 339.24, 689.64 336.49 C 692.44 333.74, 693.80 331.92, 696.59 328.10 C 699.37 324.28, 700.90 321.91, 703.56 317.40 C 706.23 312.89, 707.46 310.29, 709.92 305.54 C 712.39 300.78, 713.67 298.07, 715.88 293.63 C 718.09 289.20, 719.22 286.94, 720.96 283.36 C 722.70 279.78, 723.60 278.20, 724.57 275.72 C 725.54 273.24, 725.76 272.20, 725.80 270.96 C 725.84 269.73, 725.50 269.29, 724.77 269.54 C 724.05 269.79, 723.16 270.10, 722.16 272.19 C 721.16 274.28, 720.80 276.03, 719.75 279.98 C 718.70 283.92, 718.20 286.50, 716.90 291.92 C 715.61 297.35, 714.66 300.63, 713.28 307.11 C 711.90 313.58, 711.01 317.34, 709.99 324.31 C 708.97 331.28, 708.55 335.12, 708.17 341.96 C 707.79 348.80, 707.76 352.43, 708.09 358.52 C 708.42 364.62, 708.76 367.62, 709.83 372.43 C 710.89 377.24, 711.48 379.38, 713.41 382.57 C 715.34 385.76, 716.66 387.19, 719.48 388.39 C 722.30 389.58, 724.23 389.47, 727.51 388.56 C 730.79 387.64, 732.53 386.45, 735.86 383.82 C 739.20 381.20, 741.01 379.24, 744.19 375.42 C 747.36 371.61, 749.07 369.09, 751.73 364.74 C 754.40 360.40, 755.63 357.93, 757.53 353.72 C 759.42 349.50, 760.18 347.26, 761.20 343.66 C 762.23 340.06, 762.61 338.41, 762.65 335.71 C 762.69 333.00, 762.38 331.75, 761.40 330.15 C 760.43 328.54, 759.47 327.89, 757.77 327.69 C 756.08 327.49, 754.80 327.78, 752.93 329.15 C 751.05 330.51, 749.90 331.72, 748.40 334.52 C 746.90 337.33, 746.34 339.46, 745.42 343.16 C 744.51 346.87, 744.14 349.12, 743.82 353.06 C 743.50 356.99, 743.39 359.19, 743.81 362.82 C 744.23 366.45, 744.55 368.46, 745.92 371.22 C 747.29 373.97, 748.41 375.17, 750.68 376.61 C 752.95 378.05, 754.41 378.52, 757.26 378.39 C 760.11 378.26, 761.89 377.64, 764.92 375.95 C 767.95 374.27, 769.57 372.76, 772.42 369.96 C 775.27 367.16, 776.64 365.36, 779.17 361.94 C 781.69 358.53, 782.96 356.47, 785.04 352.88 C 787.12 349.30, 788.16 347.27, 789.55 344.01 C 790.94 340.75, 791.56 338.89, 791.99 336.57 C 792.42 334.25, 792.22 333.03, 791.71 332.42 C 791.20 331.81, 790.32 331.92, 789.45 333.50 C 788.58 335.09, 787.97 336.66, 787.36 340.34 C 786.75 344.01, 786.81 346.64, 786.42 351.90 C 786.02 357.16, 785.84 360.30, 785.38 366.64 C 784.92 372.98, 784.73 376.57, 784.11 383.60 C 783.49 390.64, 783.17 394.55, 782.29 401.82 C 781.40 409.08, 781.01 412.90, 779.67 419.94 C 778.33 426.99, 777.52 430.63, 775.60 437.05 C 773.68 443.48, 772.50 446.72, 770.05 452.05 C 767.60 457.38, 766.08 459.86, 763.35 463.70 C 760.63 467.54, 759.01 469.16, 756.44 471.24 C 753.88 473.32, 752.59 473.79, 750.54 474.10 C 748.49 474.42, 747.63 474.27, 746.21 472.82 C 744.79 471.38, 744.19 470.09, 743.45 466.86 C 742.71 463.63, 742.05 461.42, 742.51 456.67 C 742.98 451.91, 743.82 448.79, 745.77 443.07 C 747.73 437.36, 749.13 434.23, 752.30 428.09 C 755.48 421.95, 757.51 418.43, 761.66 412.37 C 765.81 406.30, 768.29 403.27, 773.05 397.75 C 777.81 392.23, 780.53 389.56, 785.46 384.76 C 790.39 379.96, 792.93 377.69, 797.71 373.75 C 802.49 369.80, 805.29 367.88, 809.35 365.05 C 813.41 362.22, 815.33 361.41, 818.01 359.58 C 820.69 357.76, 821.91 356.83, 822.74 355.92 C 823.57 355.01, 823.35 354.66, 822.17 355.03 C 820.99 355.40, 819.64 356.09, 816.85 357.78 C 814.06 359.46, 812.25 360.52, 808.22 363.46 C 804.18 366.41, 801.42 368.45, 796.66 372.50 C 791.90 376.54, 789.37 378.84, 784.42 383.71 C 779.48 388.57, 776.75 391.24, 771.95 396.81 C 767.16 402.37, 764.65 405.42, 760.43 411.52 C 756.21 417.63, 754.15 421.15, 750.86 427.34 C 747.57 433.52, 746.12 436.63, 743.99 442.44 C 741.85 448.25, 740.84 451.39, 740.19 456.40 C 739.53 461.41, 739.85 463.83, 740.70 467.49 C 741.54 471.15, 742.38 472.91, 744.42 474.72 C 746.45 476.53, 748.16 476.87, 750.87 476.54 C 753.58 476.22, 755.15 475.44, 757.97 473.09 C 760.79 470.75, 762.24 468.88, 764.96 464.81 C 767.69 460.74, 769.16 458.20, 771.58 452.73 C 773.99 447.27, 775.15 443.99, 777.05 437.48 C 778.96 430.98, 779.76 427.31, 781.10 420.21 C 782.44 413.12, 782.84 409.29, 783.75 402.00 C 784.67 394.71, 785.00 390.79, 785.69 383.75 C 786.39 376.71, 786.59 373.12, 787.23 366.80 C 787.86 360.48, 788.18 357.34, 788.86 352.15 C 789.54 346.96, 790.02 344.46, 790.61 340.87 C 791.20 337.28, 791.73 335.89, 791.81 334.19 C 791.89 332.49, 791.58 332.07, 791.01 332.38 C 790.45 332.68, 789.85 333.60, 789.00 335.70 C 788.14 337.79, 788.01 339.69, 786.75 342.86 C 785.50 346.03, 784.66 348.07, 782.71 351.56 C 780.76 355.05, 779.47 357.07, 777.00 360.33 C 774.54 363.58, 773.11 365.28, 770.38 367.84 C 767.65 370.39, 766.00 371.62, 763.33 373.10 C 760.67 374.59, 759.26 375.05, 757.04 375.27 C 754.82 375.49, 753.87 375.31, 752.22 374.22 C 750.58 373.13, 749.90 372.17, 748.82 369.82 C 747.73 367.47, 747.19 365.76, 746.79 362.47 C 746.39 359.17, 746.44 357.01, 746.81 353.33 C 747.17 349.64, 747.61 347.42, 748.63 344.04 C 749.65 340.65, 750.60 338.86, 751.90 336.38 C 753.20 333.91, 753.98 332.96, 755.14 331.66 C 756.30 330.35, 756.84 329.96, 757.68 329.87 C 758.53 329.77, 758.96 330.02, 759.36 331.17 C 759.76 332.32, 759.83 333.24, 759.69 335.60 C 759.55 337.97, 759.52 339.55, 758.67 342.98 C 757.81 346.42, 757.18 348.67, 755.41 352.78 C 753.64 356.90, 752.42 359.34, 749.81 363.56 C 747.20 367.78, 745.47 370.24, 742.35 373.87 C 739.24 377.51, 737.37 379.34, 734.24 381.74 C 731.12 384.15, 729.49 385.04, 726.73 385.89 C 723.98 386.74, 722.75 386.89, 720.48 385.98 C 718.20 385.08, 717.12 384.17, 715.37 381.37 C 713.61 378.57, 712.83 376.58, 711.71 371.99 C 710.59 367.41, 710.16 364.41, 709.76 358.42 C 709.37 352.43, 709.37 348.82, 709.74 342.05 C 710.10 335.27, 710.52 331.46, 711.58 324.55 C 712.64 317.64, 713.53 313.91, 715.03 307.50 C 716.53 301.09, 717.52 297.82, 719.08 292.50 C 720.63 287.18, 721.52 284.71, 722.80 280.89 C 724.07 277.07, 724.92 275.58, 725.47 273.39 C 726.02 271.21, 725.81 270.56, 725.54 269.95 C 725.27 269.33, 724.88 269.41, 724.11 270.33 C 723.35 271.24, 722.80 272.12, 721.71 274.52 C 720.63 276.92, 720.26 278.70, 718.71 282.33 C 717.15 285.96, 716.07 288.24, 713.94 292.69 C 711.82 297.14, 710.53 299.86, 708.08 304.58 C 705.63 309.30, 704.39 311.87, 701.69 316.28 C 699.00 320.68, 697.42 322.99, 694.61 326.61 C 691.80 330.23, 690.33 331.94, 687.65 334.39 C 684.97 336.85, 683.58 337.74, 681.21 338.87 C 678.85 340.01, 677.84 340.28, 675.83 340.07 C 673.83 339.85, 672.92 339.44, 671.19 337.80 C 669.47 336.16, 668.64 335.01, 667.21 331.89 C 665.77 328.77, 665.01 326.59, 664.03 322.19 C 663.05 317.80, 662.83 315.10, 662.31 309.92 C 661.79 304.74, 661.68 301.37, 661.44 296.30 C 661.20 291.22, 661.29 288.55, 661.11 284.55 C 660.93 280.55, 661.09 278.51, 660.54 276.29 C 659.98 274.07, 659.24 273.47, 658.34 273.45 C 657.43 273.42, 656.81 274.14, 656.01 276.17 C 655.21 278.20, 654.98 279.97, 654.33 283.59 C 653.68 287.21, 653.62 289.49, 652.77 294.27 C 651.92 299.05, 651.19 301.79, 650.05 307.50 C 648.92 313.20, 648.28 316.51, 647.08 322.78 C 645.88 329.05, 645.31 332.50, 644.04 338.86 C 642.77 345.22, 642.01 348.57, 640.71 354.58 C 639.42 360.58, 638.76 363.71, 637.55 368.90 C 636.34 374.08, 635.72 376.61, 634.67 380.50 C 633.62 384.40, 632.87 386.14, 632.30 388.38 C 631.73 390.63, 631.86 391.41, 631.80 391.72 C 631.75 392.04, 631.97 391.60, 632.03 389.96 C 632.08 388.31, 631.98 386.84, 632.07 383.49 C 632.16 380.15, 632.12 377.78, 632.48 373.23 C 632.85 368.67, 633.22 365.98, 633.88 360.73 C 634.53 355.49, 634.96 352.44, 635.76 347.01 C 636.56 341.58, 636.97 338.75, 637.86 333.59 C 638.76 328.44, 639.32 325.78, 640.24 321.23 C 641.16 316.68, 641.66 314.55, 642.47 310.85 C 643.28 307.15, 643.75 305.52, 644.28 302.73 C 644.81 299.94, 644.99 298.73, 645.13 296.90 C 645.28 295.08, 645.15 294.53, 645.00 293.61 C 644.84 292.69, 644.70 292.60, 644.35 292.31 C 644.00 292.02, 643.64 291.99, 643.22 292.15" style="stroke: black; fill: black;"/><path d="M 945.92,275.49 C 945.40 275.61, 945.23 275.85, 944.50 276.69 C 943.77 277.53, 943.36 277.85, 942.28 279.67 C 941.20 281.49, 940.72 282.80, 939.11 285.79 C 937.50 288.79, 936.50 290.56, 934.24 294.66 C 931.97 298.75, 930.63 301.16, 927.80 306.27 C 924.97 311.38, 923.19 314.36, 920.08 320.22 C 916.98 326.08, 915.32 329.33, 912.29 335.55 C 909.26 341.76, 907.68 345.20, 904.94 351.30 C 902.20 357.39, 900.87 360.65, 898.58 366.02 C 896.30 371.39, 895.24 373.93, 893.51 378.15 C 891.77 382.36, 890.85 384.35, 889.93 387.10 C 889.00 389.85, 888.90 390.69, 888.89 391.89 C 888.89 393.10, 889.53 393.01, 889.88 393.13 C 890.24 393.24, 890.64 392.66, 890.68 392.45 C 890.72 392.23, 890.23 391.98, 890.08 392.06 C 889.93 392.14, 889.85 392.78, 889.95 392.83 C 890.05 392.88, 890.04 393.27, 890.58 392.31 C 891.11 391.36, 891.66 390.73, 892.63 388.04 C 893.61 385.36, 893.95 383.16, 895.46 378.89 C 896.97 374.62, 898.00 372.07, 900.19 366.68 C 902.38 361.30, 903.69 358.04, 906.40 351.95 C 909.11 345.86, 910.68 342.43, 913.73 336.25 C 916.77 330.07, 918.44 326.83, 921.60 321.04 C 924.77 315.24, 926.58 312.28, 929.55 307.27 C 932.51 302.25, 933.90 299.89, 936.42 295.96 C 938.95 292.03, 940.29 290.48, 942.17 287.61 C 944.04 284.73, 944.83 283.52, 945.80 281.59 C 946.76 279.66, 946.74 279.07, 947.00 277.96 C 947.26 276.86, 947.31 276.56, 947.10 276.06 C 946.88 275.57, 946.44 275.36, 945.92 275.49" style="stroke: black; fill: black;"/><path d="M 940.36,278.58 C 941.00 278.33, 941.32 277.56, 941.94 276.81 C 942.57 276.05, 942.83 275.48, 943.48 274.81 C 944.13 274.14, 944.35 273.65, 945.20 273.46 C 946.04 273.26, 946.59 273.26, 947.71 273.84 C 948.82 274.42, 949.43 274.93, 950.77 276.35 C 952.11 277.77, 952.90 278.66, 954.41 280.95 C 955.92 283.24, 956.81 284.52, 958.32 287.80 C 959.83 291.08, 960.59 293.13, 961.96 297.35 C 963.32 301.58, 964.01 304.03, 965.14 308.92 C 966.27 313.82, 966.68 316.41, 967.61 321.83 C 968.54 327.24, 969.00 330.33, 969.81 336.00 C 970.62 341.67, 970.91 344.61, 971.65 350.18 C 972.40 355.74, 972.83 358.73, 973.54 363.84 C 974.25 368.96, 974.65 371.56, 975.20 375.75 C 975.75 379.93, 975.79 382.02, 976.29 384.77 C 976.79 387.51, 977.26 388.33, 977.71 389.47 C 978.17 390.61, 978.33 390.33, 978.56 390.48 C 978.78 390.64, 978.81 390.27, 978.83 390.23 C 978.85 390.19, 978.60 390.23, 978.64 390.27 C 978.67 390.32, 978.79 390.69, 979.01 390.47 C 979.22 390.24, 979.63 390.39, 979.70 389.15 C 979.76 387.90, 979.78 387.00, 979.35 384.25 C 978.91 381.50, 978.29 379.52, 977.53 375.38 C 976.77 371.24, 976.33 368.64, 975.52 363.55 C 974.72 358.46, 974.29 355.48, 973.52 349.92 C 972.75 344.36, 972.46 341.43, 971.67 335.74 C 970.88 330.06, 970.44 326.96, 969.56 321.50 C 968.68 316.04, 968.31 313.43, 967.28 308.45 C 966.24 303.48, 965.61 300.99, 964.39 296.62 C 963.16 292.25, 962.49 290.16, 961.15 286.62 C 959.81 283.07, 959.22 281.50, 957.68 278.90 C 956.15 276.31, 955.19 275.30, 953.47 273.65 C 951.76 272.01, 950.90 271.38, 949.12 270.67 C 947.34 269.96, 946.21 269.85, 944.57 270.12 C 942.93 270.39, 942.08 271.04, 940.92 272.03 C 939.76 273.03, 939.21 273.91, 938.78 275.11 C 938.35 276.31, 938.46 277.36, 938.78 278.05 C 939.09 278.74, 939.73 278.83, 940.36 278.58" style="stroke: black; fill: black;"/><path d="M 923.53,345.65 C 923.71 346.10, 923.76 346.38, 924.75 346.81 C 925.74 347.24, 926.34 347.66, 928.49 347.79 C 930.63 347.93, 932.18 347.70, 935.49 347.48 C 938.81 347.26, 940.94 347.01, 945.07 346.72 C 949.19 346.42, 951.59 346.31, 956.12 346.01 C 960.65 345.72, 963.19 345.53, 967.71 345.25 C 972.22 344.97, 974.85 344.96, 978.70 344.62 C 982.55 344.28, 985.33 344.05, 986.96 343.54 C 988.59 343.03, 988.54 342.35, 986.85 342.08 C 985.17 341.81, 982.41 342.06, 978.55 342.20 C 974.69 342.34, 972.07 342.53, 967.56 342.78 C 963.05 343.04, 960.51 343.29, 955.98 343.48 C 951.46 343.67, 949.08 343.72, 944.96 343.74 C 940.84 343.76, 938.68 343.59, 935.39 343.55 C 932.10 343.52, 930.56 343.45, 928.50 343.57 C 926.44 343.68, 926.00 343.95, 925.07 344.14 C 924.15 344.34, 924.17 344.26, 923.87 344.56 C 923.56 344.86, 923.35 345.20, 923.53 345.65" style="stroke: black; fill: black;"/><path d="M 1035.36,325.50 C 1035.04 324.80, 1034.46 324.16, 1033.06 323.32 C 1031.66 322.48, 1030.61 321.88, 1028.35 321.29 C 1026.09 320.70, 1024.56 320.41, 1021.75 320.37 C 1018.95 320.33, 1017.29 320.51, 1014.33 321.09 C 1011.36 321.66, 1009.69 322.20, 1006.92 323.25 C 1004.15 324.30, 1002.70 324.91, 1000.49 326.32 C 998.29 327.73, 997.16 328.57, 995.90 330.32 C 994.65 332.06, 994.25 333.12, 994.23 335.06 C 994.21 337.00, 994.40 338.14, 995.81 340.01 C 997.21 341.88, 998.51 342.89, 1001.25 344.42 C 1003.98 345.94, 1005.93 346.41, 1009.48 347.65 C 1013.03 348.89, 1015.18 349.47, 1018.99 350.62 C 1022.79 351.77, 1024.99 352.18, 1028.51 353.42 C 1032.03 354.65, 1033.93 355.50, 1036.59 356.82 C 1039.25 358.13, 1040.44 358.71, 1041.80 359.99 C 1043.15 361.27, 1043.47 361.91, 1043.36 363.23 C 1043.25 364.55, 1042.73 365.12, 1041.24 366.57 C 1039.76 368.03, 1038.59 368.93, 1035.93 370.50 C 1033.26 372.07, 1031.31 373.08, 1027.93 374.43 C 1024.55 375.78, 1022.41 376.50, 1019.03 377.24 C 1015.65 377.99, 1013.80 378.04, 1011.01 378.17 C 1008.23 378.31, 1006.78 378.34, 1005.12 377.92 C 1003.45 377.50, 1003.15 377.02, 1002.69 376.06 C 1002.23 375.09, 1002.64 374.23, 1002.83 373.09 C 1003.03 371.95, 1003.35 371.43, 1003.66 370.37 C 1003.97 369.31, 1004.50 368.47, 1004.38 367.79 C 1004.26 367.10, 1003.80 366.68, 1003.07 366.95 C 1002.34 367.21, 1001.41 367.92, 1000.74 369.10 C 1000.07 370.27, 999.79 371.18, 999.74 372.81 C 999.69 374.44, 999.58 375.68, 1000.47 377.24 C 1001.37 378.80, 1002.08 379.74, 1004.21 380.61 C 1006.34 381.47, 1008.03 381.62, 1011.13 381.55 C 1014.23 381.49, 1016.12 381.11, 1019.72 380.30 C 1023.31 379.48, 1025.49 378.81, 1029.10 377.47 C 1032.71 376.13, 1034.84 375.34, 1037.77 373.60 C 1040.69 371.85, 1042.10 370.80, 1043.70 368.75 C 1045.31 366.69, 1045.77 365.46, 1045.80 363.33 C 1045.83 361.20, 1045.40 359.97, 1043.85 358.10 C 1042.29 356.23, 1040.91 355.46, 1038.03 353.98 C 1035.15 352.49, 1033.08 351.91, 1029.45 350.68 C 1025.81 349.45, 1023.62 349.06, 1019.86 347.84 C 1016.09 346.63, 1013.99 345.95, 1010.64 344.59 C 1007.28 343.23, 1005.58 342.38, 1003.10 341.04 C 1000.61 339.71, 999.48 339.10, 998.23 337.91 C 996.97 336.72, 996.82 336.22, 996.82 335.08 C 996.83 333.94, 997.15 333.36, 998.25 332.23 C 999.35 331.10, 1000.33 330.49, 1002.32 329.42 C 1004.32 328.35, 1005.70 327.77, 1008.24 326.88 C 1010.78 325.99, 1012.35 325.43, 1015.03 324.97 C 1017.72 324.52, 1019.17 324.53, 1021.66 324.61 C 1024.14 324.69, 1025.41 325.02, 1027.44 325.38 C 1029.48 325.74, 1030.39 326.12, 1031.84 326.41 C 1033.29 326.70, 1033.99 327.01, 1034.69 326.83 C 1035.40 326.64, 1035.69 326.20, 1035.36 325.50" style="stroke: black; fill: black;"/><path d="M 1075.12,330.95 C 1075.26 330.19, 1075.17 329.19, 1074.47 327.96 C 1073.76 326.74, 1073.03 325.92, 1071.58 324.82 C 1070.12 323.72, 1069.17 323.00, 1067.18 322.46 C 1065.20 321.93, 1063.81 321.87, 1061.65 322.14 C 1059.49 322.40, 1058.43 322.82, 1056.38 323.78 C 1054.34 324.74, 1053.17 325.35, 1051.44 326.94 C 1049.71 328.52, 1048.70 329.60, 1047.73 331.70 C 1046.77 333.81, 1046.51 335.10, 1046.61 337.46 C 1046.72 339.83, 1047.04 341.14, 1048.24 343.52 C 1049.44 345.91, 1050.43 347.18, 1052.61 349.39 C 1054.79 351.60, 1056.44 352.55, 1059.15 354.58 C 1061.86 356.61, 1063.46 357.60, 1066.15 359.54 C 1068.85 361.47, 1070.32 362.46, 1072.62 364.26 C 1074.92 366.05, 1076.12 366.96, 1077.65 368.49 C 1079.17 370.03, 1079.83 370.71, 1080.24 371.95 C 1080.64 373.19, 1080.53 373.66, 1079.69 374.69 C 1078.84 375.72, 1077.94 376.18, 1076.00 377.10 C 1074.05 378.03, 1072.66 378.53, 1069.96 379.33 C 1067.25 380.13, 1065.47 380.69, 1062.48 381.10 C 1059.49 381.51, 1057.79 381.56, 1055.02 381.39 C 1052.24 381.21, 1050.82 380.88, 1048.61 380.21 C 1046.41 379.54, 1045.18 379.07, 1043.98 378.03 C 1042.77 377.00, 1042.79 376.18, 1042.58 375.05 C 1042.38 373.91, 1042.71 373.42, 1042.97 372.35 C 1043.23 371.29, 1043.96 370.39, 1043.88 369.70 C 1043.79 369.01, 1043.25 368.55, 1042.54 368.90 C 1041.83 369.25, 1040.88 370.13, 1040.33 371.46 C 1039.77 372.79, 1039.47 373.78, 1039.78 375.54 C 1040.09 377.30, 1040.32 378.65, 1041.86 380.25 C 1043.40 381.84, 1044.91 382.59, 1047.49 383.53 C 1050.07 384.47, 1051.67 384.73, 1054.76 384.97 C 1057.85 385.21, 1059.66 385.09, 1062.93 384.73 C 1066.20 384.38, 1068.11 384.06, 1071.09 383.19 C 1074.07 382.31, 1075.65 381.76, 1077.83 380.36 C 1080.01 378.96, 1081.03 378.00, 1082.01 376.20 C 1083.00 374.39, 1083.15 373.31, 1082.77 371.33 C 1082.39 369.35, 1081.71 368.26, 1080.11 366.30 C 1078.51 364.33, 1077.17 363.41, 1074.77 361.51 C 1072.36 359.62, 1070.79 358.77, 1068.09 356.84 C 1065.38 354.91, 1063.81 353.87, 1061.25 351.85 C 1058.68 349.84, 1057.25 348.76, 1055.28 346.76 C 1053.31 344.75, 1052.47 343.74, 1051.40 341.84 C 1050.33 339.95, 1050.04 339.01, 1049.93 337.29 C 1049.83 335.57, 1050.07 334.75, 1050.88 333.24 C 1051.68 331.74, 1052.52 330.98, 1053.95 329.77 C 1055.37 328.55, 1056.36 327.95, 1057.99 327.16 C 1059.62 326.38, 1060.47 326.03, 1062.09 325.85 C 1063.70 325.67, 1064.66 325.82, 1066.09 326.27 C 1067.51 326.71, 1068.07 327.30, 1069.22 328.08 C 1070.36 328.86, 1070.89 329.44, 1071.80 330.17 C 1072.70 330.90, 1073.08 331.58, 1073.74 331.73 C 1074.41 331.89, 1074.97 331.70, 1075.12 330.95" style="stroke: black; fill: black;"/><path d="M 1098.96,356.06 C 1099.59 356.30, 1100.18 356.25, 1101.64 355.94 C 1103.10 355.63, 1104.07 355.51, 1106.25 354.51 C 1108.43 353.51, 1110.04 352.61, 1112.53 350.93 C 1115.02 349.25, 1116.26 348.13, 1118.71 346.11 C 1121.16 344.09, 1122.60 342.98, 1124.77 340.83 C 1126.94 338.69, 1128.11 337.49, 1129.57 335.37 C 1131.03 333.25, 1131.47 332.16, 1132.09 330.23 C 1132.70 328.30, 1132.82 327.33, 1132.63 325.74 C 1132.44 324.14, 1132.18 323.33, 1131.13 322.25 C 1130.09 321.17, 1129.15 320.63, 1127.42 320.35 C 1125.70 320.08, 1124.58 320.16, 1122.51 320.88 C 1120.43 321.60, 1119.32 322.22, 1117.05 323.93 C 1114.77 325.65, 1113.42 326.80, 1111.13 329.44 C 1108.84 332.08, 1107.52 333.76, 1105.58 337.13 C 1103.65 340.50, 1102.70 342.56, 1101.47 346.28 C 1100.23 350.01, 1099.69 352.04, 1099.41 355.76 C 1099.13 359.48, 1099.12 361.57, 1100.05 364.89 C 1100.99 368.22, 1101.77 369.90, 1104.08 372.39 C 1106.38 374.87, 1108.05 375.93, 1111.59 377.31 C 1115.13 378.70, 1117.36 379.12, 1121.77 379.31 C 1126.19 379.49, 1128.77 379.27, 1133.67 378.25 C 1138.57 377.22, 1141.62 375.99, 1146.27 374.18 C 1150.92 372.37, 1153.51 371.08, 1156.92 369.19 C 1160.33 367.31, 1162.19 365.88, 1163.34 364.77 C 1164.49 363.67, 1164.17 363.18, 1162.67 363.66 C 1161.18 364.13, 1159.31 365.47, 1155.86 367.14 C 1152.41 368.80, 1149.95 370.22, 1145.42 371.98 C 1140.88 373.75, 1137.90 375.00, 1133.20 375.96 C 1128.49 376.93, 1126.02 377.04, 1121.90 376.80 C 1117.78 376.56, 1115.74 376.04, 1112.60 374.76 C 1109.46 373.49, 1108.15 372.56, 1106.20 370.43 C 1104.25 368.30, 1103.64 367.01, 1102.85 364.12 C 1102.06 361.23, 1101.98 359.36, 1102.25 355.98 C 1102.51 352.59, 1102.98 350.65, 1104.17 347.20 C 1105.36 343.74, 1106.30 341.77, 1108.21 338.69 C 1110.11 335.61, 1111.44 334.10, 1113.70 331.81 C 1115.95 329.51, 1117.44 328.70, 1119.48 327.21 C 1121.52 325.72, 1122.36 325.08, 1123.90 324.35 C 1125.43 323.62, 1126.07 323.61, 1127.16 323.57 C 1128.24 323.53, 1128.76 323.67, 1129.32 324.13 C 1129.88 324.60, 1129.99 324.90, 1129.97 325.91 C 1129.94 326.91, 1129.84 327.68, 1129.20 329.17 C 1128.56 330.65, 1128.14 331.51, 1126.75 333.31 C 1125.35 335.12, 1124.29 336.23, 1122.21 338.20 C 1120.14 340.18, 1118.79 341.36, 1116.39 343.18 C 1113.99 345.01, 1112.64 345.82, 1110.21 347.31 C 1107.77 348.80, 1106.19 349.48, 1104.23 350.63 C 1102.27 351.79, 1101.56 352.26, 1100.41 353.08 C 1099.25 353.90, 1098.74 354.14, 1098.45 354.74 C 1098.16 355.34, 1098.32 355.82, 1098.96 356.06" style="stroke: black; fill: black;"/><path d="M 1188.33,286.57 C 1187.89 286.48, 1187.51 286.15, 1186.66 286.88 C 1185.82 287.60, 1185.08 288.09, 1184.09 290.19 C 1183.11 292.30, 1182.69 293.91, 1181.73 297.41 C 1180.77 300.91, 1180.34 303.19, 1179.28 307.69 C 1178.22 312.20, 1177.43 314.92, 1176.43 319.94 C 1175.42 324.96, 1175.06 327.69, 1174.25 332.78 C 1173.44 337.88, 1172.87 340.56, 1172.39 345.40 C 1171.91 350.25, 1171.83 352.75, 1171.86 357.02 C 1171.89 361.28, 1171.94 363.31, 1172.53 366.73 C 1173.12 370.15, 1173.63 371.78, 1174.80 374.11 C 1175.96 376.44, 1176.89 377.54, 1178.34 378.39 C 1179.79 379.23, 1180.85 378.95, 1182.04 378.34 C 1183.23 377.73, 1183.89 376.64, 1184.28 375.34 C 1184.68 374.04, 1184.48 372.58, 1184.02 371.85 C 1183.56 371.11, 1182.56 371.13, 1181.99 371.67 C 1181.42 372.20, 1181.38 373.51, 1181.16 374.52 C 1180.95 375.53, 1181.21 376.30, 1180.92 376.72 C 1180.63 377.14, 1180.37 377.40, 1179.70 376.62 C 1179.04 375.84, 1178.49 374.89, 1177.60 372.81 C 1176.71 370.72, 1175.92 369.37, 1175.25 366.21 C 1174.57 363.04, 1174.36 361.09, 1174.22 356.97 C 1174.07 352.85, 1174.10 350.37, 1174.53 345.60 C 1174.95 340.83, 1175.52 338.16, 1176.34 333.12 C 1177.16 328.08, 1177.54 325.36, 1178.65 320.41 C 1179.76 315.47, 1180.58 312.77, 1181.88 308.39 C 1183.19 304.01, 1183.93 301.82, 1185.16 298.52 C 1186.40 295.21, 1187.32 293.90, 1188.06 291.85 C 1188.80 289.79, 1188.71 289.16, 1188.88 288.26 C 1189.04 287.36, 1189.00 287.69, 1188.89 287.35 C 1188.79 287.01, 1188.78 286.67, 1188.33 286.57" style="stroke: black; fill: black;"/><path d="M 1159.74,341.07 C 1160.34 341.21, 1160.61 341.05, 1162.11 340.67 C 1163.60 340.28, 1164.49 340.02, 1167.20 339.16 C 1169.92 338.30, 1171.70 337.34, 1175.67 336.38 C 1179.64 335.42, 1182.20 334.98, 1187.06 334.34 C 1191.91 333.71, 1195.11 333.53, 1199.95 333.22 C 1204.78 332.90, 1207.53 333.00, 1211.23 332.78 C 1214.92 332.57, 1217.00 332.53, 1218.43 332.15 C 1219.87 331.77, 1219.87 331.24, 1218.42 330.90 C 1216.97 330.56, 1214.89 330.45, 1211.17 330.43 C 1207.44 330.41, 1204.68 330.51, 1199.80 330.79 C 1194.92 331.07, 1191.71 331.33, 1186.76 331.85 C 1181.82 332.37, 1179.23 332.71, 1175.07 333.39 C 1170.90 334.07, 1168.80 334.34, 1165.95 335.26 C 1163.11 336.17, 1162.23 337.03, 1160.86 337.98 C 1159.49 338.92, 1159.33 339.35, 1159.10 339.97 C 1158.87 340.59, 1159.13 340.93, 1159.74 341.07" style="stroke: black; fill: black;"/></svg>